PathFileType	4	(X/Y/Z)	c:/Users/goper/Files/vsCode/490R/osim_files/A01/A01_Fast_06.trc
DataRate	CameraRate	NumFrames	NumMarkers	Units                	OrigDataRate	OrigDataStartFrame	OrigNumFrames
120.00	120.00	4	36	mm	120.0	917	1222
                Frame#	Time	Mobility_markerset:LPSIS			Mobility_markerset:LASIS			Mobility_markerset:LTH1			Mobility_markerset:LTH2			Mobility_markerset:LTH3			Mobility_markerset:LTH4			Mobility_markerset:LLFE			Mobility_markerset:LMFE			Mobility_markerset:LSH1			Mobility_markerset:LSH2			Mobility_markerset:LSH3			Mobility_markerset:LSH4			Mobility_markerset:LLMAL			Mobility_markerset:LMMAL			Mobility_markerset:LCAL			Mobility_markerset:LMTP5			Mobility_markerset:LTOE			Mobility_markerset:LMTP1			Mobility_markerset:RPSIS			Mobility_markerset:RASIS			Mobility_markerset:RTH1			Mobility_markerset:RTH2			Mobility_markerset:RTH3			Mobility_markerset:RTH4			Mobility_markerset:RLFE			Mobility_markerset:RMFE			Mobility_markerset:RSH1			Mobility_markerset:RSH2			Mobility_markerset:RSH3			Mobility_markerset:RSH4			Mobility_markerset:RLMAL			Mobility_markerset:RMMAL			Mobility_markerset:RCAL			Mobility_markerset:RMTP1			Mobility_markerset:RTOE			Mobility_markerset:RMTP5		
		X1	Y1	Z1	X2	Y2	Z2	X3	Y3	Z3	X4	Y4	Z4	X5	Y5	Z5	X6	Y6	Z6	X7	Y7	Z7	X8	Y8	Z8	X9	Y9	Z9	X10	Y10	Z10	X11	Y11	Z11	X12	Y12	Z12	X13	Y13	Z13	X14	Y14	Z14	X15	Y15	Z15	X16	Y16	Z16	X17	Y17	Z17	X18	Y18	Z18	X19	Y19	Z19	X20	Y20	Z20	X21	Y21	Z21	X22	Y22	Z22	X23	Y23	Z23	X24	Y24	Z24	X25	Y25	Z25	X26	Y26	Z26	X27	Y27	Z27	X28	Y28	Z28	X29	Y29	Z29	X30	Y30	Z30	X31	Y31	Z31	X32	Y32	Z32	X33	Y33	Z33	X34	Y34	Z34	X35	Y35	Z35	X36	Y36	Z36

917	7.63333	0.00000	0.00000	0.00000	-3652.74365	1045.37927	444.74747	-3656.77710	725.74762	523.56805	-3681.48828	687.54895	524.60834	-3709.27051	755.02179	533.46075	-3729.53467	713.28070	527.91296	0.00000	0.00000	0.00000	-3802.57251	573.93835	380.44879	0.00000	0.00000	0.00000	0.00000	0.00000	0.00000	-3703.35620	409.22171	477.32169	-3681.43750	372.35809	471.84451	-3564.89917	153.16522	413.76880	-3585.72705	154.66003	330.98660	-3494.73218	154.74126	345.15878	-3660.32642	56.85073	471.89069	-3714.41553	67.54249	418.97958	-3708.41968	60.27653	380.69043	-3443.50830	1059.42090	228.59706	-3684.94946	1020.22705	190.97171	-3573.81104	689.34229	104.41479	-3585.21948	646.98981	111.39773	-3635.20728	698.28467	107.90497	-3636.91846	655.94257	112.40145	-3637.69897	512.22076	155.86569	0.00000	0.00000	0.00000	-3540.26099	319.47235	138.62350	-3539.62329	272.41739	140.01202	-3600.98413	312.93188	142.07588	-3592.88428	268.06610	142.73732	-3549.87231	92.38086	172.79512	-3563.21411	115.33145	257.10040	-3491.23535	70.09800	214.40488	-3694.53418	49.14100	287.91507	-3731.13770	63.82748	244.96341	-3685.94482	35.94086	165.38087
918	7.64167	0.00000	0.00000	0.00000	-3660.99390	1044.62878	445.41687	-3667.18457	726.46930	525.22699	-3692.05029	688.77643	525.67194	-3718.83594	756.72455	534.31073	-3739.41309	715.07990	528.94763	0.00000	0.00000	0.00000	-3814.99194	576.70612	381.88315	-3669.33350	435.02353	461.88947	0.00000	0.00000	0.00000	-3721.89404	409.13635	480.13284	-3701.70361	371.31226	474.93723	-3594.41187	146.89545	418.94540	-3615.58057	148.31949	336.29776	-3526.48120	145.53169	350.17288	-3693.33740	55.29361	478.69479	-3747.36963	67.56639	426.01740	-3741.79761	59.52410	387.71030	-3450.55737	1059.72815	229.34367	-3692.48242	1019.75275	191.38705	-3578.29590	689.32727	105.24694	-3589.47534	646.98517	112.22815	-3639.72974	697.99347	108.83642	-3641.10107	655.62817	113.25394	-3640.62842	511.69986	156.51018	0.00000	0.00000	0.00000	-3541.79834	319.75858	138.94916	-3541.03076	272.60037	140.35159	-3602.26880	312.85864	142.54796	-3594.02441	268.06427	143.14935	-3549.95654	92.51297	173.02103	-3563.28687	115.34428	257.40854	-3491.23535	70.13774	214.62469	-3694.56763	48.99744	287.95126	-3731.22241	63.67897	245.01729	-3685.95068	35.95501	165.38286
919	7.65000	0.00000	0.00000	0.00000	-3669.20264	1043.79614	446.18698	-3676.24512	727.75757	525.50360	-3701.60596	689.94019	526.81244	-3728.24829	757.97125	534.78876	-3749.08813	716.54022	529.95514	0.00000	0.00000	0.00000	-3826.83423	579.09058	383.27557	-3686.74048	432.50717	464.24619	0.00000	0.00000	0.00000	-3740.32202	409.08496	482.99988	-3721.75928	370.25906	478.11380	-3623.93359	141.06703	424.24445	-3645.38354	142.45020	341.78708	0.00000	0.00000	0.00000	-3726.29590	54.27502	485.48663	-3780.05200	68.13356	432.94913	-3774.63281	59.43526	395.50751	-3458.20581	1059.34351	230.52235	-3700.14380	1019.19116	191.72346	-3582.88794	689.35303	106.10164	-3593.74561	647.01318	113.01503	-3644.28467	697.67157	109.84320	-3645.37988	655.26428	114.20396	-3643.51660	511.16519	157.16325	0.00000	0.00000	0.00000	-3543.25537	320.01544	139.35353	-3542.49194	272.80450	140.73947	-3603.76196	312.87006	142.92375	-3595.13477	267.94495	143.57733	-3550.04224	92.65443	173.29158	-3564.45581	115.23442	257.53772	-3491.37549	70.27540	214.81602	-3694.60986	48.84682	287.98212	-3731.30615	63.52264	245.06564	-3685.93945	35.96153	165.38437
920	7.65833	0.00000	0.00000	0.00000	-3677.43091	1042.80029	447.08432	-3685.97021	727.73621	527.36871	-3714.28101	689.59198	527.58636	-3737.21973	758.68085	535.79578	-3758.39771	717.44165	531.03064	0.00000	0.00000	0.00000	-3838.39746	581.28735	384.73230	-3704.24634	429.89252	466.75613	0.00000	0.00000	0.00000	-3758.66943	409.03058	485.96213	-3741.70874	369.24799	481.32971	-3653.55225	135.70938	429.62546	-3674.78931	136.59761	347.38828	0.00000	0.00000	0.00000	-3758.85596	52.48338	491.79065	-3812.48193	69.41491	439.66373	-3807.56787	60.04182	402.34241	0.00000	0.00000	0.00000	-3707.69897	1018.63074	192.08153	-3587.52539	689.50055	106.81823	-3597.94507	646.92963	113.82780	-3648.94360	697.27344	110.92534	-3649.76660	654.88727	115.23355	-3646.21411	510.71738	157.77475	0.00000	0.00000	0.00000	-3544.79321	320.28247	139.73846	-3543.82349	272.95581	141.11101	-3605.23828	312.74521	143.44022	-3596.36865	267.98236	144.03438	-3550.20801	92.77141	173.56236	-3563.92017	115.75875	257.81046	-3491.54785	70.33488	215.11346	-3694.66162	48.70211	288.03586	-3731.42212	63.40499	245.11322	-3685.96558	36.01398	165.39062
